<?xml version="1.0" standalone="no"?>
<!DOCTYPE svg PUBLIC "-//W3C//DTD SVG 20010904//EN"
 "http://www.w3.org/TR/2001/REC-SVG-20010904/DTD/svg10.dtd">
<svg version="1.0" xmlns="http://www.w3.org/2000/svg"
 width="256.000000pt" height="256.000000pt" viewBox="0 0 256.000000 256.000000"
 preserveAspectRatio="xMidYMid meet">

<g transform="translate(0.000000,256.000000) scale(0.100000,-0.100000)"
fill="#000000" stroke="none">
<path d="M840 2498 c-14 -7 -29 -27 -34 -44 -9 -30 -12 -32 -75 -38 -102 -9
-170 -32 -177 -60 -5 -22 -11 -23 -179 -33 -256 -16 -258 -19 -275 -269 -6
-87 -12 -168 -15 -180 -2 -11 -9 -144 -15 -295 -11 -269 0 -984 19 -1313 7
-127 8 -129 38 -156 55 -49 120 -55 588 -53 231 2 544 6 695 11 304 10 334 16
369 72 18 30 19 50 14 398 l-5 367 88 105 c48 58 155 192 237 299 83 106 180
225 217 265 111 120 178 231 160 265 -15 29 -130 130 -172 152 -38 19 -84 24
-104 11 -6 -4 -98 -117 -204 -252 -106 -135 -194 -247 -196 -249 -15 -17 -16
47 -5 327 14 353 12 378 -40 437 -40 46 -79 55 -229 55 l-126 0 -11 30 c-15
39 -64 60 -142 60 -56 0 -60 1 -69 29 -19 53 -48 63 -195 68 -97 3 -139 1
-157 -9z m-304 -249 c-3 -17 -6 -42 -6 -55 0 -23 -3 -24 -64 -24 -109 0 -186
-11 -195 -29 -5 -9 -12 -63 -16 -121 -3 -58 -10 -161 -15 -230 -5 -69 -10
-158 -10 -199 0 -64 -2 -72 -15 -61 -12 10 -15 10 -15 -2 0 -8 4 -18 10 -24 6
-6 11 -186 14 -449 3 -242 8 -459 12 -483 5 -36 3 -47 -16 -68 -26 -26 -22
-45 3 -19 14 14 16 4 19 -107 3 -110 1 -125 -16 -145 -11 -13 -17 -26 -13 -29
9 -10 27 6 27 24 0 14 2 14 9 3 7 -11 58 -14 265 -14 141 0 256 -3 256 -6 0
-4 -5 -12 -12 -19 -19 -19 2 -14 29 8 37 29 142 29 168 0 10 -11 23 -20 29
-20 6 0 5 5 -2 12 -21 21 -13 28 35 28 45 0 46 0 28 -20 -23 -26 -8 -26 19 -1
20 18 40 20 297 23 258 3 274 2 255 -14 -12 -9 -18 -19 -14 -23 4 -4 31 16 61
44 42 40 56 48 66 38 10 -9 11 -6 9 16 -2 15 -7 26 -10 25 -4 -2 -23 13 -42
31 -40 39 -50 22 -12 -18 l25 -26 -25 -28 -24 -28 -1 33 c0 18 -4 73 -8 122
l-6 89 42 40 c24 22 43 46 43 53 0 8 -20 32 -45 55 -25 23 -45 49 -45 58 0 9
24 42 53 75 l52 58 0 -218 c0 -121 4 -263 9 -316 11 -123 2 -142 -76 -157 -29
-5 -309 -15 -623 -22 -748 -15 -876 -4 -896 72 -4 15 -12 233 -19 485 -14 506
-9 970 15 1244 8 96 15 203 15 236 0 84 18 106 91 111 52 5 55 3 94 -36 21
-23 46 -41 54 -41 9 0 -2 18 -29 45 l-43 44 74 4 c41 1 89 4 108 5 32 2 33 1
27 -29z m1164 3 c43 -21 60 -56 67 -133 5 -53 3 -63 -17 -84 -29 -31 -44 -31
-64 -3 -14 20 -16 20 -16 4 0 -10 8 -25 18 -32 16 -12 16 -14 -5 -36 -35 -37
-28 -56 8 -22 30 28 31 28 45 10 14 -19 14 -19 14 2 0 12 -5 22 -10 22 -6 0
-5 8 2 20 7 11 15 20 18 20 3 0 2 -39 -2 -87 -3 -49 -7 -171 -7 -272 -1 -158
-3 -187 -18 -203 -16 -18 -18 -17 -50 14 -22 21 -33 27 -33 17 0 -9 11 -26 25
-39 l25 -24 -26 -27 c-46 -48 -21 -51 29 -4 26 25 47 42 47 38 -1 -4 -25 -39
-55 -77 l-55 -69 0 238 0 239 30 -29 30 -29 -25 -26 c-38 -40 -31 -59 8 -22
26 25 36 29 45 20 9 -9 12 -4 12 26 0 31 -3 36 -14 27 -11 -9 -21 -3 -50 29
-36 41 -36 41 -30 108 4 37 8 116 8 175 1 85 -2 110 -14 117 -8 5 -62 10 -120
10 l-105 0 3 50 4 50 121 0 c96 0 129 -4 157 -18z m-1174 -164 c18 -62 27 -63
444 -63 206 0 387 3 402 8 21 5 29 15 34 42 l6 35 96 0 95 0 -6 -137 c-4 -76
-10 -284 -13 -462 l-7 -324 -91 -121 -91 -121 -200 -6 c-110 -4 -257 -7 -327
-8 -89 -1 -128 -4 -128 -13 0 -8 80 -10 315 -5 173 3 315 3 315 1 0 -3 -13
-22 -30 -42 -57 -72 -170 -342 -170 -407 0 -12 6 -28 14 -34 21 -17 282 115
346 175 l48 45 4 -183 c2 -101 3 -185 1 -188 -2 -2 -291 -6 -642 -8 l-638 -4
-6 98 c-4 55 -10 320 -13 589 -7 488 1 751 29 1035 l12 115 80 6 c44 3 87 6
96 7 10 1 19 -10 25 -30z m1627 -456 c48 -41 87 -77 87 -79 0 -9 -262 -352
-366 -479 -119 -146 -335 -394 -344 -394 -3 0 -15 17 -27 38 -12 21 -44 54
-72 73 -28 19 -51 37 -51 41 0 10 450 614 569 764 53 67 101 119 106 116 6 -4
49 -39 98 -80z m-758 -880 c22 -15 52 -45 67 -67 l27 -40 -24 -20 c-14 -11
-54 -36 -90 -55 l-65 -34 -29 29 -30 30 44 93 c24 50 47 92 52 92 4 -1 26 -13
48 -28z m280 -202 c-16 -16 -32 -30 -37 -30 -4 0 -8 30 -8 67 l0 68 37 -37 37
-38 -29 -30z"/>
<path d="M231 2209 c-47 -55 -34 -58 19 -4 24 25 38 45 30 44 -8 0 -30 -18
-49 -40z"/>
<path d="M500 2195 c-10 -12 -10 -15 4 -15 9 0 16 7 16 15 0 8 -2 15 -4 15 -2
0 -9 -7 -16 -15z"/>
<path d="M200 2092 c0 -5 11 -19 25 -32 17 -16 25 -19 25 -9 -1 15 -50 56 -50
41z"/>
<path d="M216 1911 c-11 -12 -17 -23 -14 -26 8 -9 41 21 37 34 -3 9 -11 6 -23
-8z"/>
<path d="M200 1814 c0 -5 7 -18 15 -28 12 -16 15 -17 15 -4 0 8 -7 21 -15 28
-8 7 -15 9 -15 4z"/>
<path d="M206 1621 c-4 -7 -5 -15 -2 -18 9 -9 19 4 14 18 -4 11 -6 11 -12 0z"/>
<path d="M201 1324 c0 -11 3 -14 6 -6 3 7 2 16 -1 19 -3 4 -6 -2 -5 -13z"/>
<path d="M201 1244 c0 -11 3 -14 6 -6 3 7 2 16 -1 19 -3 4 -6 -2 -5 -13z"/>
<path d="M201 1044 c0 -11 3 -14 6 -6 3 7 2 16 -1 19 -3 4 -6 -2 -5 -13z"/>
<path d="M207 776 c-4 -10 -5 -21 -2 -24 9 -9 17 6 13 25 -3 17 -4 17 -11 -1z"/>
<path d="M200 681 c0 -6 5 -13 10 -16 6 -3 10 1 10 9 0 9 -4 16 -10 16 -5 0
-10 -4 -10 -9z"/>
<path d="M200 404 c0 -5 7 -18 15 -28 12 -16 15 -17 15 -4 0 8 -7 21 -15 28
-8 7 -15 9 -15 4z"/>
<path d="M1243 193 c9 -9 19 -14 23 -11 10 10 -6 28 -24 28 -15 0 -15 -1 1
-17z"/>
<path d="M1320 195 c-16 -19 -1 -19 24 0 16 12 17 15 4 15 -8 0 -21 -7 -28
-15z"/>
<path d="M1524 195 c21 -16 32 -13 21 4 -3 6 -14 11 -23 11 -15 -1 -15 -2 2
-15z"/>
<path d="M400 190 c20 -13 33 -13 25 0 -3 6 -14 10 -23 10 -15 0 -15 -2 -2
-10z"/>
<path d="M470 190 c0 -5 4 -10 9 -10 6 0 13 5 16 10 3 6 -1 10 -9 10 -9 0 -16
-4 -16 -10z"/>
<path d="M685 190 c3 -5 11 -10 16 -10 6 0 7 5 4 10 -3 6 -11 10 -16 10 -6 0
-7 -4 -4 -10z"/>
<path d="M1475 2219 c25 -23 47 -40 49 -38 8 7 -64 79 -79 79 -8 0 6 -19 30
-41z"/>
<path d="M1650 2215 c-19 -19 -29 -35 -24 -35 6 0 25 16 44 35 19 19 29 35 24
35 -6 0 -25 -16 -44 -35z"/>
<path d="M459 1729 c-15 -28 -7 -142 11 -164 11 -14 27 -16 86 -13 99 5 105
12 102 112 l-3 81 -92 3 c-86 3 -93 1 -104 -19z m141 -6 c34 -8 35 -11 37 -57
1 -27 -2 -59 -7 -72 -9 -22 -15 -24 -80 -24 -79 0 -74 -7 -70 95 3 79 14 84
120 58z"/>
<path d="M557 1663 c-15 -15 -27 -22 -27 -15 0 6 -7 12 -15 12 -21 0 -19 -16
6 -34 20 -13 23 -12 50 19 45 51 34 66 -14 18z"/>
<path d="M948 1713 c-127 -2 -208 -7 -208 -13 0 -11 512 -14 623 -3 115 10 73
23 -70 21 -76 -2 -231 -4 -345 -5z"/>
<path d="M848 1623 c-157 -5 -136 -23 25 -23 228 0 557 13 557 22 0 7 -335 8
-582 1z"/>
<path d="M466 1394 c-22 -21 -22 -131 0 -162 13 -19 24 -22 82 -22 100 0 112
11 112 109 0 92 2 91 -105 91 -54 0 -78 -4 -89 -16z m160 -25 c12 -10 15 -26
12 -68 -6 -64 -23 -81 -84 -81 -71 0 -74 3 -74 84 0 40 3 76 8 80 11 12 120 0
138 -15z"/>
<path d="M560 1325 c-18 -19 -26 -22 -37 -13 -23 19 -28 -2 -5 -24 l22 -22 30
34 c16 19 29 38 30 43 0 14 -17 7 -40 -18z"/>
<path d="M898 1363 c-237 -5 -201 -23 45 -23 252 0 487 10 487 22 0 7 -157 8
-532 1z"/>
<path d="M798 1273 c-34 -2 -58 -9 -58 -15 0 -8 65 -9 233 -5 127 4 283 7 345
7 68 0 112 4 112 10 0 9 -491 11 -632 3z"/>
<path d="M467 1052 c-19 -21 -23 -114 -7 -157 10 -27 12 -27 89 -24 104 5 111
12 111 109 0 91 1 90 -104 90 -58 0 -76 -4 -89 -18z m128 -16 l40 -14 -1 -62
c-1 -41 -6 -65 -15 -71 -20 -13 -127 -11 -135 2 -8 13 -6 137 2 151 8 12 64 9
109 -6z"/>
<path d="M559 979 c-16 -16 -23 -18 -35 -8 -24 20 -29 0 -6 -24 l22 -21 30 32
c17 18 30 35 30 38 0 11 -22 2 -41 -17z"/>
<path d="M997 1023 c-173 -2 -257 -7 -255 -14 3 -10 662 -14 680 -3 24 15 -11
24 -85 22 -45 -2 -198 -4 -340 -5z"/>
<path d="M522 709 c-59 -29 -85 -70 -90 -140 -3 -46 1 -68 18 -104 29 -61 69
-85 138 -85 108 0 164 57 165 169 0 59 -11 90 -47 129 -49 55 -113 66 -184 31z"/>
</g>
</svg>
